<svg width="348" height="194" viewBox="0 0 348 194" fill="none" xmlns="http://www.w3.org/2000/svg">
<g filter="url(#filter0_b_301_12873)">
<path fill-rule="evenodd" clip-rule="evenodd" d="M300.135 91.3787H308.518C308.518 91.3787 307.514 97.4521 302.72 105.207H300.713C300.713 105.207 303.799 97.4019 300.135 91.981V91.3787ZM194.527 156.531C189.859 156.531 185.994 155.15 182.907 152.39C179.87 149.629 178.365 146.291 178.365 142.376C178.365 139.339 179.343 136.779 181.301 134.721C183.208 132.638 185.417 131.609 187.952 131.609C189.533 131.609 190.938 132.036 192.168 132.864C193.398 133.717 194.025 134.546 194.025 135.399C194.025 135.8 193.875 135.976 193.598 135.976L192.595 135.725C191.917 135.549 191.365 135.474 190.913 135.474C189.457 135.474 188.228 136.051 187.249 137.231C186.27 138.41 185.768 139.866 185.768 141.623C185.768 143.982 186.596 145.889 188.253 147.345C189.909 148.801 191.942 149.528 194.351 149.528C196.936 149.528 199.07 148.675 200.751 146.969C202.433 145.262 203.286 143.028 203.286 140.268C203.286 138.36 202.859 136.528 202.031 134.746C201.178 132.99 200.099 131.408 198.743 130.078C197.388 128.723 195.907 127.393 194.276 126.088L194.27 126.083L194.268 126.081L194.265 126.079L194.263 126.077L194.261 126.075L194.259 126.074L194.256 126.072L194.254 126.07C192.63 124.746 191.006 123.422 189.357 122.097C187.701 120.742 186.195 119.362 184.84 117.981C183.484 116.576 182.405 114.945 181.552 113.088C180.699 111.23 180.297 109.298 180.297 107.265C180.297 103.4 181.652 100.313 184.338 98.0043C187.098 95.6953 190.235 94.5409 193.774 94.5409C196.183 94.5409 198.593 95.1934 201.027 96.4733C203.436 97.7031 204.742 98.3305 204.892 98.3305C205.444 98.3305 205.896 98.0545 206.247 97.4772H206.749V108.67H206.247C202.759 103.952 198.919 101.593 194.703 101.593C192.67 101.593 191.064 102.145 189.859 103.224C188.654 104.329 188.052 105.684 188.052 107.315C188.052 110.176 190.737 113.79 196.133 118.182C198.267 119.763 199.998 121.144 201.353 122.348C202.709 123.553 204.24 125.109 205.946 126.991C207.653 128.874 208.958 130.906 209.811 133.065C210.69 135.223 211.091 137.457 211.041 139.766C211.041 144.308 209.56 148.248 206.574 151.561C203.587 154.874 199.572 156.531 194.527 156.531ZM175.654 148.449C175.654 147.546 175.403 147.094 174.901 147.094L174.876 147.144C174.826 147.144 174.324 147.395 173.395 147.897C172.467 148.399 171.262 148.901 169.806 149.403C168.351 149.905 166.92 150.156 165.515 150.156C162.252 150.156 159.416 149.127 157.007 147.069C154.598 145.011 152.213 142.225 149.854 138.687C146.441 133.341 143.655 129.802 141.522 128.071C145.688 127.092 148.926 125.285 151.26 122.624C153.594 119.964 154.748 116.676 154.748 112.736C154.748 107.742 152.891 103.726 149.177 100.69C145.588 97.6027 140.694 96.0467 134.52 96.0467H117.153V96.373C118.684 97.5023 119.437 98.9078 119.437 100.589V150.457C119.437 152.139 118.659 153.544 117.153 154.673V155H129.375V154.673C127.919 153.669 127.192 152.264 127.192 150.457V129.551H131.057C132.638 129.551 134.194 130.204 135.775 131.534C137.331 132.864 138.787 134.52 140.066 136.553C141.372 138.586 142.827 140.744 144.458 143.053C146.09 145.337 147.721 147.496 149.352 149.528C150.984 151.561 152.991 153.218 155.376 154.548C157.76 155.878 160.32 156.531 163.005 156.531C166.494 156.531 169.48 155.602 171.94 153.745C174.424 151.913 175.654 150.131 175.654 148.449ZM127.217 122.574V103.049H135.398C138.987 103.049 141.823 103.927 143.906 105.659C145.989 107.391 147.018 109.725 147.018 112.812C147.018 115.898 145.939 118.308 143.806 120.014C141.673 121.721 138.686 122.574 134.871 122.574H127.217ZM160.922 138.737H173.144V138.41C171.689 137.281 170.961 135.851 170.961 134.119V100.589C170.961 98.7823 171.689 97.3768 173.144 96.373V96.0467H160.922V96.373C162.453 97.5023 163.206 98.9078 163.206 100.589V134.119C163.206 135.901 162.428 137.356 160.922 138.41V138.737ZM260.005 96.0216H211.819L210.388 105.132H210.89C211.568 103.726 212.898 103.024 214.856 103.024H226.4V150.457C226.4 152.264 225.672 153.669 224.217 154.673V155H236.439V154.673C234.908 153.544 234.155 152.139 234.155 150.457V103.024H256.968C258.951 103.024 260.256 103.726 260.934 105.132H261.436L260.005 96.0216ZM258.826 155H246.603V154.673C248.109 153.544 248.887 152.139 248.887 150.457V116.927C248.887 115.12 248.134 113.69 246.603 112.636V112.31H258.826V112.636C257.37 113.765 256.642 115.196 256.642 116.927V150.457C256.642 152.264 257.37 153.669 258.826 154.673V155ZM298.353 151.285H297.952C297.224 152.691 295.894 153.393 293.987 153.393H275.691V128.974H288.34C290.021 128.974 291.427 129.652 292.556 131.007H292.882V119.964H292.556C291.477 121.319 290.071 121.997 288.34 121.997H275.691V103.049H291.452C293.46 103.049 294.815 103.751 295.492 105.157H295.994L294.564 96.0467H265.652V96.373C267.183 97.5023 267.936 98.9078 267.936 100.589V155.853C267.936 157.534 267.158 158.94 265.652 160.069V160.395H296.923L298.353 151.285ZM340.391 136.654C342.775 139.314 344.582 142.1 345.712 144.961L345.661 144.936C346.816 147.797 347.393 150.833 347.393 153.946C347.393 155.301 347.293 156.606 347.092 157.886C346.163 163.733 343.001 168.954 338.383 172.266C333.59 175.68 327.541 176.081 323.4 176.081C321.267 176.081 319.184 175.755 317.226 175.102C308.744 172.266 303.047 164.938 303.047 156.882C303.047 152.741 304.327 149.328 306.861 146.718C309.396 144.108 312.282 142.777 315.445 142.777C317.226 142.777 318.833 143.179 320.188 144.007C321.593 144.86 322.296 145.689 322.296 146.567C322.296 147.094 321.995 147.42 321.468 147.42L320.037 147.069C319.159 146.843 318.381 146.743 317.728 146.743C315.721 146.743 313.964 147.646 312.558 149.428C312.081 150.055 311.655 150.758 311.329 151.486C309.998 154.498 310.074 157.911 311.554 161.073C313.211 164.587 316.348 167.272 319.962 168.301C321.593 168.753 323.45 168.878 325.709 168.652C329.173 168.326 331.958 167.498 333.991 166.218C336.024 164.938 337.706 162.905 338.735 160.521C340.215 157.058 340.14 152.615 338.584 148.299C336.651 142.978 332.711 139.038 328.746 135.575C328.118 135.022 326.588 133.717 324.329 131.835C321.995 129.903 320.363 128.497 319.435 127.644C318.506 126.816 317.176 125.46 315.445 123.603C313.688 121.746 312.408 120.115 311.605 118.785C310.802 117.429 310.049 115.823 309.421 113.966C308.769 112.109 308.442 110.176 308.442 108.269C308.442 103.224 310.224 99.2591 313.763 96.4984C317.277 93.6625 321.468 92.2319 326.186 92.2319C328.319 92.2319 330.503 92.6335 332.686 93.4366C334.844 94.2397 336.626 95.0428 338.007 95.8459C339.713 96.8498 340.09 97.0004 340.165 97.0004C340.567 97.0004 341.294 96.7494 341.445 96.3729L341.52 96.1973H342.123V108.194H341.545L341.47 108.068C337.58 102.522 332.259 99.4599 326.537 99.4599C323.375 99.4599 320.815 100.338 318.958 102.095C317.101 103.852 316.147 106.035 316.147 108.595C316.147 113.037 319.811 118.333 327.039 124.381C330.051 126.791 332.46 128.773 334.192 130.329C335.924 131.885 338.007 134.018 340.391 136.654ZM66.2561 159.919C65.6789 159.617 64.7001 160.019 63.37 161.098C57.3216 165.917 50.3195 168.176 41.3599 168.201C31.4717 168.201 23.3653 164.888 17.2668 158.438C11.0678 151.787 7.93066 143.229 7.93066 132.99C7.93066 122.75 11.2184 114.368 17.7185 108.47C24.2939 102.421 31.9987 99.3595 40.6572 99.3595C45.8021 99.3595 50.4952 100.414 54.586 102.497C58.2251 104.354 62.09 106.512 62.9433 108.369L63.0186 108.52H63.621V96.6239H63.0437L62.9684 96.7745C62.6422 97.3267 61.5379 97.6278 61.036 97.6027C60.6595 97.6027 59.7811 97.3267 57.673 96.3228C52.2269 93.5872 46.3793 92.2069 40.3058 92.2069C29.3133 92.2069 19.7514 96.0969 11.8709 103.726C3.99043 111.381 0 121.37 0 133.416C0 145.463 3.99043 155.677 11.8709 163.558C19.6761 171.363 29.238 175.328 40.3058 175.328C42.3889 175.328 49.667 175.102 56.2926 172.066C62.6924 169.129 66.6828 163.181 66.7079 160.897C66.7079 160.295 66.4569 160.019 66.231 159.919H66.2561ZM108.193 155.828V100.589V100.539C108.193 98.8576 108.946 97.4521 110.452 96.3228V95.9965H98.2297V96.3228C99.6854 97.3517 100.413 98.7321 100.413 100.539V126.966C97.5521 128.045 94.2895 128.572 90.801 128.572C87.3125 128.572 83.548 128.02 79.5074 126.891V100.564C79.5074 98.8827 80.2603 97.4772 81.7661 96.3479V96.0216H69.5689V96.3479C70.9995 97.3768 71.7524 98.7572 71.7524 100.564V124.055C69.845 123.277 67.9376 122.524 66.0051 121.771C53.2057 116.651 35.0354 109.925 26.5024 125.561C19.2745 138.988 34.9852 155.727 47.7094 144.961C49.8929 142.878 51.1477 139.54 50.7964 136.578C50.696 135.625 49.3156 135.65 49.1149 136.578C48.2616 140.393 44.7229 143.48 40.7324 143.606C33.9312 144.459 28.8867 136.804 30.8442 130.58C32.2748 126.063 36.8926 122.499 41.6108 122.424C44.9487 122.273 48.6631 123.151 52.3524 124.256C57.1746 125.769 62.0253 127.638 66.9367 129.53C68.5434 130.149 70.1566 130.771 71.7775 131.383V155.828C71.7775 157.635 71.0497 159.015 69.594 160.044V160.37H81.7912V160.044C80.2854 158.915 79.5324 157.509 79.5324 155.828V133.993C83.6735 134.997 87.3125 135.499 90.3995 135.499C94.0385 135.499 97.4015 135.022 100.413 134.069V155.828C100.413 157.635 99.6854 159.015 98.2297 160.044V160.37H110.452V160.044C108.946 158.915 108.193 157.509 108.193 155.828Z" fill="#F1EACF"/>
<path fill-rule="evenodd" clip-rule="evenodd" d="M184.09 19.3498C184.09 26.9542 178.368 31.7979 178.368 31.7979C178.368 31.7979 172.621 26.9291 172.621 19.3498C172.621 14.8268 174.871 9.39958 176.556 5.33756C177.563 2.90835 178.368 0.96738 178.368 0C178.368 0.952062 179.144 2.79606 180.125 5.12576C181.807 9.12155 184.09 14.5461 184.09 19.3498ZM178.368 11.8207C179.046 17.5679 179.046 23.3151 178.368 29.0624C177.69 23.3151 177.69 17.5679 178.368 11.8207ZM172.646 60.6595C172.646 53.0551 178.368 48.2114 178.368 48.2114L178.343 48.2365C178.343 48.2365 184.09 53.0802 184.09 60.6595C184.106 65.1895 181.854 70.6264 180.171 74.6905L180.171 74.6908L180.171 74.6909C179.169 77.1112 178.368 79.0445 178.368 80.0093C178.368 79.042 177.567 77.101 176.564 74.6718C174.887 70.6098 172.646 65.1826 172.646 60.6595ZM178.368 68.1886C177.69 62.4414 177.69 56.6942 178.368 50.947C179.046 56.6942 179.046 62.4414 178.368 68.1886ZM157.713 34.2575C153.19 34.2575 147.763 36.4982 143.701 38.1753C141.272 39.1782 139.331 39.9796 138.363 39.9796C139.331 39.9796 141.272 40.7845 143.701 41.7918C147.763 43.4762 153.19 45.7268 157.713 45.7268C165.292 45.7268 170.161 39.9796 170.161 39.9796C170.161 39.9796 165.317 34.2575 157.713 34.2575ZM150.159 40.0047C155.906 39.3271 161.653 39.3271 167.401 40.0047C161.653 40.6823 155.906 40.6823 150.159 40.0047ZM186.575 40.0047C186.575 40.0047 191.443 34.2575 199.023 34.2575C203.546 34.2575 208.973 36.508 213.035 38.1924C215.464 39.1998 217.405 40.0047 218.373 40.0047C217.421 40.0047 215.577 40.7809 213.247 41.7615C209.251 43.4434 203.826 45.7268 199.023 45.7268C191.418 45.7268 186.575 40.0047 186.575 40.0047ZM189.31 40.0047C195.057 39.3271 200.805 39.3271 206.552 40.0047C200.805 40.6823 195.057 40.6823 189.31 40.0047Z" fill="#C58C1E"/>
<path fill-rule="evenodd" clip-rule="evenodd" d="M183.663 34.6594C182.628 33.6405 180.702 32.7271 180.702 32.7271L182.71 32.1499C183.915 31.8236 184.969 31.1962 185.847 30.3178L195.208 20.9566C195.861 20.3041 197.442 18.9739 198.27 18.6226L200.78 17.5434L199.701 20.0531C199.349 20.9064 198.019 22.4875 197.367 23.1149L188.005 32.4761C187.152 33.3294 186.525 34.4086 186.173 35.6133L185.596 37.621C185.596 37.621 184.682 35.6947 183.663 34.6594ZM173.022 34.7102C172.003 35.7457 171.09 37.6712 171.09 37.6712L170.513 35.6635C170.186 34.4588 169.559 33.4047 168.681 32.5263L159.319 23.1652C158.667 22.5126 157.337 20.9315 156.985 20.1033L155.906 17.5936L158.416 18.6728C159.269 19.0241 160.85 20.3543 161.478 21.0068L170.839 30.368C171.692 31.2213 172.771 31.8487 173.976 32.2001L175.984 32.7773C175.984 32.7773 174.058 33.6911 173.022 34.7102ZM176.034 47.2834C176.034 47.2834 174.108 46.3699 173.073 45.3511C172.054 44.3158 171.14 42.3894 171.14 42.3894L170.563 44.3972C170.212 45.6019 169.584 46.681 168.731 47.5343L159.37 56.8955C158.717 57.523 157.387 59.1041 157.036 59.9574L155.956 62.4671L158.466 61.3879C159.319 61.0365 160.875 59.7064 161.528 59.0539L170.889 49.6927C171.768 48.8143 172.822 48.1869 174.026 47.8606L176.034 47.2834ZM183.714 45.3003C184.733 44.2649 185.646 42.3393 185.646 42.3393L186.223 44.347C186.55 45.5517 187.177 46.6058 188.056 47.4842L197.417 56.8454C198.069 57.4979 199.399 59.079 199.751 59.9072L200.83 62.4169L198.32 61.3377C197.467 60.9864 195.886 59.6562 195.258 59.0037L185.897 49.6425C185.044 48.7892 183.965 48.1618 182.76 47.8104L180.752 47.2332C180.752 47.2332 182.679 46.3194 183.714 45.3003ZM181.706 36.6924C179.874 34.8603 176.887 34.8603 175.055 36.6924C173.223 38.5245 173.223 41.511 175.055 43.3431C176.887 45.1752 179.874 45.1752 181.706 43.3431C183.538 41.511 183.538 38.5245 181.706 36.6924Z" fill="#F1EACF"/>
<path fill-rule="evenodd" clip-rule="evenodd" d="M191.164 190.286C191.54 190.11 191.867 189.909 192.143 189.683L192.092 189.608L192.444 189.332L193.623 191.591L193.397 191.792C192.243 192.795 190.712 193.448 188.855 193.749C188.253 193.85 187.65 193.9 187.023 193.9C185.768 193.9 184.588 193.699 183.484 193.272C182.38 192.871 181.376 192.268 180.548 191.516C179.72 190.763 179.042 189.859 178.565 188.805C178.088 187.776 177.837 186.672 177.837 185.618C177.837 184.564 177.938 183.635 178.164 182.857C178.389 182.079 178.716 181.351 179.117 180.699C179.544 180.046 180.021 179.444 180.598 178.917C181.175 178.39 181.803 177.938 182.505 177.562C183.936 176.784 185.542 176.407 187.249 176.407C189.558 176.407 191.59 177.06 193.272 178.39L193.523 178.591L192.042 180.95L191.716 180.648C190.536 179.594 188.955 179.042 187.048 179.042C185.316 179.042 183.836 179.62 182.656 180.749C181.451 181.903 180.849 183.208 180.849 184.99C180.849 186.772 181.476 188.228 182.731 189.458C183.961 190.687 185.492 191.29 187.249 191.29C188.554 191.29 189.859 190.938 191.164 190.286ZM127.869 183.585C129.651 183.936 130.881 184.313 131.583 184.739L131.609 184.764C132.336 185.191 132.863 185.693 133.215 186.245C133.566 186.822 133.742 187.55 133.742 188.454C133.742 189.357 133.516 190.185 133.089 190.888C132.663 191.591 132.111 192.193 131.408 192.645C130.078 193.523 128.371 193.975 126.338 193.975C124.431 193.975 122.624 193.573 120.967 192.745C120.44 192.494 119.913 192.168 119.437 191.817L119.186 191.616L120.541 189.156L120.867 189.382C122.247 190.286 123.653 190.888 125.083 191.164C126.037 191.34 127.016 191.34 128.07 191.164C128.597 191.064 129.049 190.913 129.425 190.712C130.253 190.286 130.655 189.608 130.655 188.705C130.655 187.801 129.952 187.174 128.522 186.797C128.045 186.672 127.568 186.571 127.041 186.471L125.41 186.195C123.226 185.818 121.72 185.266 120.842 184.513C119.989 183.811 119.562 182.857 119.562 181.652C119.562 180.046 120.315 178.741 121.846 177.762C123.176 176.884 124.732 176.457 126.514 176.457C128.22 176.457 129.751 176.733 131.107 177.285C131.583 177.461 132.085 177.712 132.612 177.988L132.914 178.139L131.834 180.724L131.458 180.498C130.404 179.845 129.124 179.444 127.668 179.243C126.163 179.017 124.832 179.168 123.778 179.695C123 180.096 122.624 180.598 122.624 181.276C122.624 181.954 123.101 182.455 124.105 182.807C124.607 182.983 125.184 183.133 125.811 183.233L127.869 183.585ZM149.653 176.658C151.887 176.658 153.744 177.185 155.099 178.214C156.605 179.343 157.358 180.899 157.358 183.083C157.358 185.266 156.58 187.023 154.999 188.328C153.518 189.558 151.611 190.16 149.327 190.16H145.688V193.724H142.827V176.658H149.653ZM145.663 187.475H149.603H149.628C151.084 187.475 152.263 187.124 153.092 186.396C153.945 185.643 154.372 184.614 154.372 183.233C154.372 181.928 153.895 180.95 152.941 180.272C152.038 179.67 150.833 179.343 149.302 179.343H145.663V187.475ZM168.752 176.658H165.891V193.724H168.752V176.658ZM204.616 185.668H213.575V183.008H204.616V179.343H214.68V176.658H201.755V193.724H214.906V191.039H204.616V185.668ZM235.435 184.764C236.163 185.191 236.69 185.693 237.041 186.245L237.066 186.27C237.418 186.847 237.593 187.575 237.593 188.479C237.593 189.382 237.367 190.185 236.941 190.913C236.514 191.616 235.962 192.218 235.259 192.67C233.929 193.548 232.223 194 230.19 194C228.282 194 226.475 193.599 224.819 192.77C224.292 192.519 223.765 192.193 223.288 191.842L223.037 191.641L224.392 189.181L224.719 189.407C226.099 190.311 227.504 190.913 228.935 191.189C229.889 191.365 230.867 191.365 231.921 191.189C232.423 191.089 232.9 190.938 233.277 190.737C234.105 190.311 234.506 189.633 234.506 188.73C234.506 187.826 233.804 187.199 232.373 186.822C231.896 186.697 231.419 186.596 230.892 186.496L229.261 186.22C227.078 185.844 225.572 185.291 224.693 184.539C223.84 183.836 223.414 182.882 223.414 181.677C223.414 180.071 224.166 178.766 225.697 177.787C227.027 176.909 228.584 176.482 230.365 176.482C232.072 176.482 233.603 176.758 234.958 177.311C235.435 177.486 235.937 177.737 236.464 178.013L236.765 178.164L235.686 180.749L235.31 180.523C234.255 179.87 232.975 179.469 231.52 179.268C230.014 179.042 228.684 179.193 227.63 179.72C226.852 180.121 226.475 180.623 226.475 181.301C226.475 181.979 226.952 182.481 227.956 182.832C228.458 183.008 229.035 183.158 229.663 183.259L231.721 183.61C233.503 183.961 234.732 184.338 235.435 184.764Z" fill="#C58C1E"/>
</g>
<defs>
<filter id="filter0_b_301_12873" x="-80" y="-80" width="507.393" height="354" filterUnits="userSpaceOnUse" color-interpolation-filters="sRGB">
<feFlood flood-opacity="0" result="BackgroundImageFix"/>
<feGaussianBlur in="BackgroundImageFix" stdDeviation="40"/>
<feComposite in2="SourceAlpha" operator="in" result="effect1_backgroundBlur_301_12873"/>
<feBlend mode="normal" in="SourceGraphic" in2="effect1_backgroundBlur_301_12873" result="shape"/>
</filter>
</defs>
</svg>
